# xmcd
#
# Track frame offsets:
# 150
# 14312
# 25155
# 35912
# 49205
# 61212
# 74470
# 87435
# 102362
# 115765
# 130457
# 143590
# 155572
# 170542
# 190442
# 209412
# 229090
# 242472
# 256202
# 268790
#
# Disc length: 3734 seconds
#
#
# Revision: 0
# Processed by: cddbd v1.5PL3 Copyright (c) Steve Scherf et al.
# Submitted via: FreeRIP 2.53 
#
DISCID=230e9414
DTITLE=Sammy Price - Blues and Boogie Woogie from Texas
DYEAR=1900
DGENRE=Blues
TTITLE0=Boogin' With Big Sid
TTITLE1=Gully Low Blues
TTITLE2=133rd Streed Blues
TTITLE3=I Finally Gotcha
TTITLE4=Callin' Em Home
TTITLE5=Low Down Blues
TTITLE6=Frenchy's Blues
TTITLE7=Sweepin' The Blues Away
TTITLE8=How 'bout That Mess
TTITLE9=The Goon Drag
TTITLE10=Just Jivin' Around
TTITLE11=Boogie Woogie Notion
TTITLE12=Boogin' A Plenty
TTITLE13=Never Will I Forget The Blues
TTITLE14=Funky Butt
TTITLE15=Delta Mood
TTITLE16=Ice Man
TTITLE17=Evolution Blues
TTITLE18=Teach Me To Be Right
TTITLE19=Gospel Train
EXTD=Jazz Archives No. 143\n159452
EXTT0=
EXTT1=
EXTT2=
EXTT3=
EXTT4=
EXTT5=
EXTT6=
EXTT7=
EXTT8=
EXTT9=
EXTT10=
EXTT11=
EXTT12=
EXTT13=
EXTT14=
EXTT15=
EXTT16=
EXTT17=
EXTT18=
EXTT19=
PLAYORDER=
